ISO-10303-21;
HEADER;
FILE_DESCRIPTION (( 'STEP AP214' ),
    '1' );
FILE_NAME ('Assieme1.STEP',
    '2026-07-24T09:43:19',
    ( '' ),
    ( '' ),
    'SwSTEP 2.0',
    'SolidWorks 2025',
    '' );
FILE_SCHEMA (( 'AUTOMOTIVE_DESIGN' ));
ENDSEC;

DATA;
#1 = PLANE ( 'NONE',  #42 ) ;
#2 = ORIENTED_EDGE ( 'NONE', *, *, #566, .F. ) ;
#3 = UNCERTAINTY_MEASURE_WITH_UNIT (LENGTH_MEASURE( 1.000000000000000082E-05 ), #618, 'distance_accuracy_value', 'NONE');
#4 = FACE_OUTER_BOUND ( 'NONE', #107, .T. ) ;
#5 = VERTEX_POINT ( 'NONE', #259 ) ;
#6 = FILL_AREA_STYLE_COLOUR ( '', #256 ) ;
#7 = EDGE_CURVE ( 'NONE', #25, #292, #162, .T. ) ;
#8 = VERTEX_POINT ( 'NONE', #637 ) ;
#9 = PRESENTATION_LAYER_ASSIGNMENT (  '', '', ( #576 ) ) ;
#10 = AXIS2_PLACEMENT_3D ( 'NONE', #405, #624, #421 ) ;
#11 = CYLINDRICAL_SURFACE ( 'NONE', #186, 63.00000000000000000 ) ;
#12 = ORIENTED_EDGE ( 'NONE', *, *, #279, .T. ) ;
#13 = CYLINDRICAL_SURFACE ( 'NONE', #151, 63.00000000000000000 ) ;
#14 = DIRECTION ( 'NONE',  ( 1.000000000000000000, 0.000000000000000000, 0.000000000000000000 ) ) ;
#15 = ORIENTED_EDGE ( 'NONE', *, *, #260, .T. ) ;
#16 = DIRECTION ( 'NONE',  ( 1.000000000000000000, 0.000000000000000000, 0.000000000000000000 ) ) ;
#17 = CARTESIAN_POINT ( 'NONE',  ( -31.64696195410221691, 4.577601296479863358, 0.000000000000000000 ) ) ;
#18 = ORIENTED_EDGE ( 'NONE', *, *, #331, .T. ) ;
#19 = APPLICATION_CONTEXT ( 'automotive_design' ) ;
#20 = VECTOR ( 'NONE', #372, 1000.000000000000000 ) ;
#21 = CARTESIAN_POINT ( 'NONE',  ( -18.73880819321427538, -4.516811288728653118, 3.000000000000000000 ) ) ;
#22 = CARTESIAN_POINT ( 'NONE',  ( -94.64696195410220980, 4.577601296479855364, 0.000000000000000000 ) ) ;
#23 = ORIENTED_EDGE ( 'NONE', *, *, #447, .T. ) ;
#24 = CARTESIAN_POINT ( 'NONE',  ( -28.64800097885917296, -14.51681128872865401, 3.000000000000000000 ) ) ;
#25 = VERTEX_POINT ( 'NONE', #301 ) ;
#26 = DIRECTION ( 'NONE',  ( -1.000000000000000000, 0.000000000000000000, 0.000000000000000000 ) ) ;
#27 = CARTESIAN_POINT ( 'NONE',  ( 0.000000000000000000, 0.000000000000000000, 0.000000000000000000 ) ) ;
#28 = EDGE_CURVE ( 'NONE', #292, #25, #333, .T. ) ;
#29 = AXIS2_PLACEMENT_3D ( 'NONE', #330, #106, #671 ) ;
#30 = AXIS2_PLACEMENT_3D ( 'NONE', #567, #191, #634 ) ;
#31 = LINE ( 'NONE', #484, #111 ) ;
#32 = VERTEX_POINT ( 'NONE', #306 ) ;
#33 = SHAPE_REPRESENTATION ( 'Sostegno', ( #299 ), #113 ) ;
#34 = CARTESIAN_POINT ( 'NONE',  ( -94.64696195410220980, 4.577601296479855364, 7.000000000000000000 ) ) ;
#35 = FACE_OUTER_BOUND ( 'NONE', #635, .T. ) ;
#36 = ITEM_DEFINED_TRANSFORMATION ( 'NONE', 'NONE', #87,  #299 ) ;
#37 = APPLICATION_PROTOCOL_DEFINITION ( 'draft international standard', 'automotive_design', 1998, #19 ) ;
#38 = EDGE_CURVE ( 'NONE', #689, #574, #644, .T. ) ;
#39 = CARTESIAN_POINT ( 'NONE',  ( 0.000000000000000000, 0.000000000000000000, 0.000000000000000000 ) ) ;
#40 = PLANE ( 'NONE',  #541 ) ;
#41 = PRESENTATION_STYLE_ASSIGNMENT (( #316 ) ) ;
#42 = AXIS2_PLACEMENT_3D ( 'NONE', #501, #550, #565 ) ;
#43 = DIRECTION ( 'NONE',  ( -0.000000000000000000, -0.000000000000000000, -1.000000000000000000 ) ) ;
#44 = AXIS2_PLACEMENT_3D ( 'NONE', #353, #577, #288 ) ;
#45 = CONTEXT_DEPENDENT_SHAPE_REPRESENTATION ( #392, #687 ) ;
#46 = PRODUCT_DEFINITION_SHAPE ( 'NONE', 'NONE',  #94 ) ;
#47 = FACE_OUTER_BOUND ( 'NONE', #199, .T. ) ;
#48 =( NAMED_UNIT ( * ) SI_UNIT ( $, .STERADIAN. ) SOLID_ANGLE_UNIT ( ) );
#49 = CARTESIAN_POINT ( 'NONE',  ( -18.73880819321427538, -4.516811288728653118, 0.000000000000000000 ) ) ;
#50 = EDGE_CURVE ( 'NONE', #8, #598, #110, .T. ) ;
#51 = EDGE_LOOP ( 'NONE', ( #715, #658, #561, #220 ) ) ;
#52 = DIRECTION ( 'NONE',  ( 1.000000000000000000, 0.000000000000000000, 0.000000000000000000 ) ) ;
#53 = AXIS2_PLACEMENT_3D ( 'NONE', #714, #385, #602 ) ;
#54 = ORIENTED_EDGE ( 'NONE', *, *, #696, .F. ) ;
#55 = AXIS2_PLACEMENT_3D ( 'NONE', #436, #587, #699 ) ;
#56 = APPLICATION_CONTEXT ( 'automotive_design' ) ;
#57 = CARTESIAN_POINT ( 'NONE',  ( -18.73880819321427538, -4.516811288728653118, 0.000000000000000000 ) ) ;
#58 = AXIS2_PLACEMENT_3D ( 'NONE', #24, #408, #627 ) ;
#59 = ORIENTED_EDGE ( 'NONE', *, *, #554, .T. ) ;
#60 = ADVANCED_FACE ( 'NONE', ( #712 ), #323, .F. ) ;
#61 = DIRECTION ( 'NONE',  ( -0.000000000000000000, -0.000000000000000000, -1.000000000000000000 ) ) ;
#62 = ORIENTED_EDGE ( 'NONE', *, *, #684, .F. ) ;
#63 = EDGE_LOOP ( 'NONE', ( #281, #522 ) ) ;
#64 = AXIS2_PLACEMENT_3D ( 'NONE', #27, #414, #365 ) ;
#65 = DIRECTION ( 'NONE',  ( -3.491481338843133355E-15, 1.000000000000000000, 0.000000000000000000 ) ) ;
#66 = LINE ( 'NONE', #116, #439 ) ;
#67 = CARTESIAN_POINT ( 'NONE',  ( 0.000000000000000000, 0.000000000000000000, 3.000000000000000000 ) ) ;
#68 = ORIENTED_EDGE ( 'NONE', *, *, #182, .T. ) ;
#69 = CARTESIAN_POINT ( 'NONE',  ( 0.000000000000000000, 0.000000000000000000, 3.000000000000000000 ) ) ;
#70 = DIRECTION ( 'NONE',  ( -0.000000000000000000, -0.000000000000000000, -1.000000000000000000 ) ) ;
#71 = ORIENTED_EDGE ( 'NONE', *, *, #7, .T. ) ;
#72 = ADVANCED_FACE ( 'NONE', ( #647, #707 ), #206, .F. ) ;
#73 = SHAPE_REPRESENTATION ( 'Assieme1', ( #369, #188, #87, #283, #275 ), #184 ) ;
#74 = DIRECTION ( 'NONE',  ( -0.000000000000000000, -0.000000000000000000, -1.000000000000000000 ) ) ;
#75 = DIRECTION ( 'NONE',  ( -0.000000000000000000, -0.000000000000000000, -1.000000000000000000 ) ) ;
#76 = ORIENTED_EDGE ( 'NONE', *, *, #102, .F. ) ;
#77 = VECTOR ( 'NONE', #642, 1000.000000000000000 ) ;
#78 = CARTESIAN_POINT ( 'NONE',  ( -94.64696195410220980, 4.577601296479855364, 7.000000000000000000 ) ) ;
#79 = ORIENTED_EDGE ( 'NONE', *, *, #471, .T. ) ;
#80 = EDGE_CURVE ( 'NONE', #396, #557, #216, .T. ) ;
#81 = DIRECTION ( 'NONE',  ( 0.000000000000000000, -1.000000000000000000, 0.000000000000000000 ) ) ;
#82 = ORIENTED_EDGE ( 'NONE', *, *, #28, .T. ) ;
#83 = PRODUCT_DEFINITION_SHAPE ( 'NONE', 'NONE',  #250 ) ;
#84 = DIRECTION ( 'NONE',  ( 1.000000000000000000, 0.000000000000000000, 0.000000000000000000 ) ) ;
#85 = DIRECTION ( 'NONE',  ( 1.000000000000000000, 0.000000000000000000, 0.000000000000000000 ) ) ;
#86 = CIRCLE ( 'NONE', #592, 65.00000000000000000 ) ;
#87 = AXIS2_PLACEMENT_3D ( 'NONE', #166, #563, #343 ) ;
#88 = CARTESIAN_POINT ( 'NONE',  ( -157.6469619541022098, 4.577601296479855364, 0.000000000000000000 ) ) ;
#89 = FACE_OUTER_BOUND ( 'NONE', #359, .T. ) ;
#90 = ADVANCED_FACE ( 'NONE', ( #270 ), #425, .F. ) ;
#91 = APPLICATION_CONTEXT ( 'automotive_design' ) ;
#92 = DIRECTION ( 'NONE',  ( -1.000000000000000000, 0.000000000000000000, 0.000000000000000000 ) ) ;
#93 = CARTESIAN_POINT ( 'NONE',  ( 63.00000000000000000, 7.715274834628325378E-15, 0.000000000000000000 ) ) ;
#94 = PRODUCT_DEFINITION ( 'NON CONOSCIUTO', '', #593, #172 ) ;
#95 = CYLINDRICAL_SURFACE ( 'NONE', #277, 65.00000000000000000 ) ;
#96 = DIRECTION ( 'NONE',  ( 1.000000000000000000, 0.000000000000000000, 0.000000000000000000 ) ) ;
#97 = ORIENTED_EDGE ( 'NONE', *, *, #279, .F. ) ;
#98 = CIRCLE ( 'NONE', #703, 1.500000000000001332 ) ;
#99 = CARTESIAN_POINT ( 'NONE',  ( -27.14800097885917296, -14.51681128872865401, 0.000000000000000000 ) ) ;
#100 = AXIS2_PLACEMENT_3D ( 'NONE', #569, #290, #514 ) ;
#101 = DIRECTION ( 'NONE',  ( -1.000000000000000000, -8.751738993648823341E-17, 0.000000000000000000 ) ) ;
#102 = EDGE_CURVE ( 'NONE', #243, #263, #487, .T. ) ;
#103 = SHAPE_REPRESENTATION_RELATIONSHIP ( 'NONE' , 'NONE' ,  #650, #115 ) ;
#104 = DIRECTION ( 'NONE',  ( 1.000000000000000000, 0.000000000000000000, 0.000000000000000000 ) ) ;
#105 = ORIENTED_EDGE ( 'NONE', *, *, #566, .T. ) ;
#106 = DIRECTION ( 'NONE',  ( 0.000000000000000000, 0.000000000000000000, 1.000000000000000000 ) ) ;
#107 = EDGE_LOOP ( 'NONE', ( #630, #123, #234, #464 ) ) ;
#108 = UNCERTAINTY_MEASURE_WITH_UNIT (LENGTH_MEASURE( 1.000000000000000082E-05 ), #384, 'distance_accuracy_value', 'NONE');
#109 = CARTESIAN_POINT ( 'NONE',  ( -27.14800097885917296, -14.51681128872865401, 3.000000000000000000 ) ) ;
#110 = CIRCLE ( 'NONE', #124, 1.500000000000001332 ) ;
#111 = VECTOR ( 'NONE', #43, 1000.000000000000000 ) ;
#112 = VERTEX_POINT ( 'NONE', #93 ) ;
#113 =( GEOMETRIC_REPRESENTATION_CONTEXT ( 3 ) GLOBAL_UNCERTAINTY_ASSIGNED_CONTEXT ( ( #108 ) ) GLOBAL_UNIT_ASSIGNED_CONTEXT ( ( #384, #549, #48 ) ) REPRESENTATION_CONTEXT ( 'NONE', 'WORKASPACE' ) );
#114 = EDGE_CURVE ( 'NONE', #239, #598, #434, .T. ) ;
#115 = ADVANCED_BREP_SHAPE_REPRESENTATION ( '', ( #459, #299 ), #681 ) ;
#116 = CARTESIAN_POINT ( 'NONE',  ( -63.00000000000000000, 0.000000000000000000, 3.000000000000000000 ) ) ;
#117 = ORIENTED_EDGE ( 'NONE', *, *, #554, .F. ) ;
#118 = PRODUCT ( 'SostegnoCerchio', 'SostegnoCerchio', '', ( #713 ) ) ;
#119 = PLANE ( 'NONE',  #150 ) ;
#120 = ORIENTED_EDGE ( 'NONE', *, *, #38, .T. ) ;
#121 = DIRECTION ( 'NONE',  ( 0.000000000000000000, 0.000000000000000000, 1.000000000000000000 ) ) ;
#122 = CARTESIAN_POINT ( 'NONE',  ( -63.00000000000000000, 0.000000000000000000, 0.000000000000000000 ) ) ;
#123 = ORIENTED_EDGE ( 'NONE', *, *, #704, .F. ) ;
#124 = AXIS2_PLACEMENT_3D ( 'NONE', #622, #130, #350 ) ;
#125 = CIRCLE ( 'NONE', #394, 69.99999999999998579 ) ;
#126 =( NAMED_UNIT ( * ) PLANE_ANGLE_UNIT ( ) SI_UNIT ( $, .RADIAN. ) );
#127 = CARTESIAN_POINT ( 'NONE',  ( -18.73880819321427538, -44.51681128872865401, 0.000000000000000000 ) ) ;
#128 = EDGE_CURVE ( 'NONE', #552, #422, #601, .T. ) ;
#129 = CARTESIAN_POINT ( 'NONE',  ( -18.73880819321427538, -4.516811288728653118, 3.000000000000000000 ) ) ;
#130 = DIRECTION ( 'NONE',  ( 0.000000000000000000, 0.000000000000000000, 1.000000000000000000 ) ) ;
#131 = CARTESIAN_POINT ( 'NONE',  ( 97.98554465424663817, -13.07581180593138548, 1000.000000000007503 ) ) ;
#132 = LINE ( 'NONE', #524, #496 ) ;
#133 =( REPRESENTATION_RELATIONSHIP ('NONE','NONE', #73, #274 ) REPRESENTATION_RELATIONSHIP_WITH_TRANSFORMATION ( #591 )SHAPE_REPRESENTATION_RELATIONSHIP( ) );
#134 = DIRECTION ( 'NONE',  ( -0.000000000000000000, -0.000000000000000000, -1.000000000000000000 ) ) ;
#135 = ORIENTED_EDGE ( 'NONE', *, *, #307, .F. ) ;
#136 = DIRECTION ( 'NONE',  ( -0.000000000000000000, -0.000000000000000000, -1.000000000000000000 ) ) ;
#137 = DIRECTION ( 'NONE',  ( 0.000000000000000000, 0.000000000000000000, 1.000000000000000000 ) ) ;
#138 = EDGE_LOOP ( 'NONE', ( #380, #120, #15, #195 ) ) ;
#139 = ADVANCED_FACE ( 'NONE', ( #89 ), #325, .T. ) ;
#140 = VECTOR ( 'NONE', #246, 1000.000000000000000 ) ;
#141 = CARTESIAN_POINT ( 'NONE',  ( 0.000000000000000000, 0.000000000000000000, 3.000000000000000000 ) ) ;
#142 = EDGE_LOOP ( 'NONE', ( #691, #446, #82, #432 ) ) ;
#143 = PRODUCT_DEFINITION_FORMATION_WITH_SPECIFIED_SOURCE ( 'TUTTO', '', #401, .NOT_KNOWN. ) ;
#144 = FACE_BOUND ( 'NONE', #511, .T. ) ;
#145 = CYLINDRICAL_SURFACE ( 'NONE', #30, 69.99999999999998579 ) ;
#146 = ORIENTED_EDGE ( 'NONE', *, *, #590, .T. ) ;
#147 = DIRECTION ( 'NONE',  ( 1.000000000000000000, 0.000000000000000000, 0.000000000000000000 ) ) ;
#148 = CARTESIAN_POINT ( 'NONE',  ( -28.64954408944988984, -108.7568090626628248, 0.000000000000000000 ) ) ;
#149 = PRODUCT_DEFINITION_CONTEXT ( 'detailed design', #19, 'design' ) ;
#150 = AXIS2_PLACEMENT_3D ( 'NONE', #445, #341, #174 ) ;
#151 = AXIS2_PLACEMENT_3D ( 'NONE', #302, #460, #26 ) ;
#152 = CIRCLE ( 'NONE', #683, 1.500000000000001332 ) ;
#153 = DIRECTION ( 'NONE',  ( 1.000000000000000000, 0.000000000000000000, 0.000000000000000000 ) ) ;
#154 = FILL_AREA_STYLE_COLOUR ( '', #519 ) ;
#155 = LINE ( 'NONE', #377, #521 ) ;
#156 = DIRECTION ( 'NONE',  ( -0.000000000000000000, -0.000000000000000000, -1.000000000000000000 ) ) ;
#157 = APPLICATION_PROTOCOL_DEFINITION ( 'draft international standard', 'automotive_design', 1998, #56 ) ;
#158 = VERTEX_POINT ( 'NONE', #311 ) ;
#159 = DIRECTION ( 'NONE',  ( 0.000000000000000000, 0.000000000000000000, 1.000000000000000000 ) ) ;
#160 = PRODUCT_DEFINITION_SHAPE ( 'NONE', 'NONE',  #720 ) ;
#161 = ADVANCED_FACE ( 'NONE', ( #381, #597 ), #698, .F. ) ;
#162 = CIRCLE ( 'NONE', #64, 69.99999999999998579 ) ;
#163 = VECTOR ( 'NONE', #420, 1000.000000000000000 ) ;
#164 = DIRECTION ( 'NONE',  ( 1.000000000000000000, 0.000000000000000000, -0.000000000000000000 ) ) ;
#165 = PRODUCT_RELATED_PRODUCT_CATEGORY ( 'part', '', ( #118 ) ) ;
#166 = CARTESIAN_POINT ( 'NONE',  ( 31.98812678959431111, 100.2585985532113000, 1000.000000000007503 ) ) ;
#167 = SURFACE_STYLE_FILL_AREA ( #226 ) ;
#168 = DIRECTION ( 'NONE',  ( -0.000000000000000000, -0.000000000000000000, -1.000000000000000000 ) ) ;
#169 = ADVANCED_FACE ( 'NONE', ( #35, #656 ), #40, .T. ) ;
#170 =( REPRESENTATION_RELATIONSHIP ('NONE','NONE', #73, #33 ) REPRESENTATION_RELATIONSHIP_WITH_TRANSFORMATION ( #638 )SHAPE_REPRESENTATION_RELATIONSHIP( ) );
#171 = EDGE_LOOP ( 'NONE', ( #355, #676 ) ) ;
#172 = PRODUCT_DEFINITION_CONTEXT ( 'detailed design', #91, 'design' ) ;
#173 = PRODUCT ( 'Assieme1', 'Assieme1', '', ( #197 ) ) ;
#174 = DIRECTION ( 'NONE',  ( 1.000000000000000000, 0.000000000000000000, -0.000000000000000000 ) ) ;
#175 = CIRCLE ( 'NONE', #619, 65.00000000000000000 ) ;
#176 = ORIENTED_EDGE ( 'NONE', *, *, #523, .T. ) ;
#177 = CARTESIAN_POINT ( 'NONE',  ( 63.00000000000000000, 7.715274834628325378E-15, 3.000000000000000000 ) ) ;
#178 = PRODUCT_DEFINITION_FORMATION_WITH_SPECIFIED_SOURCE ( 'TUTTO', '', #118, .NOT_KNOWN. ) ;
#179 = ORIENTED_EDGE ( 'NONE', *, *, #626, .T. ) ;
#180 = CARTESIAN_POINT ( 'NONE',  ( -38.56027998568551141, -4.516811288728654894, 3.000000000000000000 ) ) ;
#181 = ORIENTED_EDGE ( 'NONE', *, *, #590, .F. ) ;
#182 = EDGE_CURVE ( 'NONE', #411, #396, #320, .T. ) ;
#183 = DIRECTION ( 'NONE',  ( -1.000000000000000000, 0.000000000000000000, 0.000000000000000000 ) ) ;
#184 =( GEOMETRIC_REPRESENTATION_CONTEXT ( 3 ) GLOBAL_UNCERTAINTY_ASSIGNED_CONTEXT ( ( #266 ) ) GLOBAL_UNIT_ASSIGNED_CONTEXT ( ( #398, #324, #329 ) ) REPRESENTATION_CONTEXT ( 'NONE', 'WORKASPACE' ) );
#185 = ORIENTED_EDGE ( 'NONE', *, *, #28, .F. ) ;
#186 = AXIS2_PLACEMENT_3D ( 'NONE', #235, #452, #443 ) ;
#187 = CIRCLE ( 'NONE', #370, 1.500000000000001332 ) ;
#188 = AXIS2_PLACEMENT_3D ( 'NONE', #131, #613, #498 ) ;
#189 = SHAPE_REPRESENTATION_RELATIONSHIP ( 'NONE' , 'NONE' ,  #274, #709 ) ;
#190 = DIRECTION ( 'NONE',  ( 1.000000000000000000, 0.000000000000000000, 0.000000000000000000 ) ) ;
#191 = DIRECTION ( 'NONE',  ( -0.000000000000000000, -0.000000000000000000, -1.000000000000000000 ) ) ;
#192 = ORIENTED_EDGE ( 'NONE', *, *, #535, .F. ) ;
#193 = DIRECTION ( 'NONE',  ( -1.000000000000000000, 0.000000000000000000, 0.000000000000000000 ) ) ;
#194 = MANIFOLD_SOLID_BREP ( 'Estrusione-Estrusione1', #242 ) ;
#195 = ORIENTED_EDGE ( 'NONE', *, *, #219, .F. ) ;
#196 = EDGE_CURVE ( 'NONE', #32, #239, #98, .T. ) ;
#197 = PRODUCT_CONTEXT ( 'NONE', #314, 'mechanical' ) ;
#198 = DIRECTION ( 'NONE',  ( 0.000000000000000000, 0.000000000000000000, 1.000000000000000000 ) ) ;
#199 = EDGE_LOOP ( 'NONE', ( #606, #616, #362, #97 ) ) ;
#200 = AXIS2_PLACEMENT_3D ( 'NONE', #378, #493, #589 ) ;
#201 = CIRCLE ( 'NONE', #100, 63.00000000000000000 ) ;
#202 = LINE ( 'NONE', #21, #163 ) ;
#203 = CARTESIAN_POINT ( 'NONE',  ( -18.73880819321428248, -44.51681128872865401, 3.000000000000000000 ) ) ;
#204 = VERTEX_POINT ( 'NONE', #180 ) ;
#205 = ORIENTED_EDGE ( 'NONE', *, *, #675, .F. ) ;
#206 = PLANE ( 'NONE',  #200 ) ;
#207 = ADVANCED_FACE ( 'NONE', ( #4 ), #1, .F. ) ;
#208 = DIRECTION ( 'NONE',  ( 0.000000000000000000, 0.000000000000000000, 1.000000000000000000 ) ) ;
#209 = DIRECTION ( 'NONE',  ( -0.000000000000000000, -0.000000000000000000, -1.000000000000000000 ) ) ;
#210 = VECTOR ( 'NONE', #101, 1000.000000000000000 ) ;
#211 = CIRCLE ( 'NONE', #462, 63.00000000000000000 ) ;
#212 = AXIS2_PLACEMENT_3D ( 'NONE', #433, #322, #655 ) ;
#213 = CARTESIAN_POINT ( 'NONE',  ( -28.64954408944988984, -108.7568090626628248, 3.000000000000000000 ) ) ;
#214 = CARTESIAN_POINT ( 'NONE',  ( -28.64800097885917296, -14.51681128872865401, 3.000000000000000000 ) ) ;
#215 = FACE_OUTER_BOUND ( 'NONE', #63, .T. ) ;
#216 = LINE ( 'NONE', #437, #337 ) ;
#217 = APPLICATION_PROTOCOL_DEFINITION ( 'draft international standard', 'automotive_design', 1998, #356 ) ;
#218 = MANIFOLD_SOLID_BREP ( 'Estrusione-Estrusione1', #358 ) ;
#219 = EDGE_CURVE ( 'NONE', #448, #674, #345, .T. ) ;
#220 = ORIENTED_EDGE ( 'NONE', *, *, #447, .F. ) ;
#221 = CARTESIAN_POINT ( 'NONE',  ( -28.64954408944988984, -108.7568090626628248, 0.000000000000000000 ) ) ;
#222 = ORIENTED_EDGE ( 'NONE', *, *, #128, .T. ) ;
#223 = AXIS2_PLACEMENT_3D ( 'NONE', #513, #664, #16 ) ;
#224 = VECTOR ( 'NONE', #395, 1000.000000000000000 ) ;
#225 = VECTOR ( 'NONE', #70, 1000.000000000000000 ) ;
#226 = FILL_AREA_STYLE ('',( #6 ) ) ;
#227 = EDGE_LOOP ( 'NONE', ( #508, #23 ) ) ;
#228 = ADVANCED_FACE ( 'NONE', ( #556, #229 ), #119, .F. ) ;
#229 = FACE_BOUND ( 'NONE', #227, .T. ) ;
#230 = VERTEX_POINT ( 'NONE', #669 ) ;
#231 = EDGE_LOOP ( 'NONE', ( #559, #146 ) ) ;
#232 =( NAMED_UNIT ( * ) SI_UNIT ( $, .STERADIAN. ) SOLID_ANGLE_UNIT ( ) );
#233 = CIRCLE ( 'NONE', #418, 63.00000000000000000 ) ;
#234 = ORIENTED_EDGE ( 'NONE', *, *, #426, .F. ) ;
#235 = CARTESIAN_POINT ( 'NONE',  ( -94.64696195410220980, 4.577601296479855364, 7.000000000000000000 ) ) ;
#236 = ORIENTED_EDGE ( 'NONE', *, *, #523, .F. ) ;
#237 = EDGE_CURVE ( 'NONE', #248, #287, #66, .T. ) ;
#238 = DIRECTION ( 'NONE',  ( 0.000000000000000000, 0.000000000000000000, 1.000000000000000000 ) ) ;
#239 = VERTEX_POINT ( 'NONE', #109 ) ;
#240 = CARTESIAN_POINT ( 'NONE',  ( 0.000000000000000000, 0.000000000000000000, 3.000000000000000000 ) ) ;
#241 = LINE ( 'NONE', #296, #506 ) ;
#242 = CLOSED_SHELL ( 'NONE', ( #386, #363, #667, #72, #139, #268 ) ) ;
#243 = VERTEX_POINT ( 'NONE', #57 ) ;
#244 = STYLED_ITEM ( 'NONE', ( #41 ), #459 ) ;
#245 = EDGE_CURVE ( 'NONE', #435, #112, #280, .T. ) ;
#246 = DIRECTION ( 'NONE',  ( -0.000000000000000000, -0.000000000000000000, -1.000000000000000000 ) ) ;
#247 = PRODUCT_DEFINITION_SHAPE ( 'NONE', 'NONE',  #719 ) ;
#248 = VERTEX_POINT ( 'NONE', #560 ) ;
#249 = CARTESIAN_POINT ( 'NONE',  ( 0.000000000000000000, 0.000000000000000000, 3.000000000000000000 ) ) ;
#250 = PRODUCT_DEFINITION ( 'NON CONOSCIUTO', '', #143, #648 ) ;
#251 = ORIENTED_EDGE ( 'NONE', *, *, #7, .F. ) ;
#252 = DIRECTION ( 'NONE',  ( 1.000000000000000000, 0.000000000000000000, 0.000000000000000000 ) ) ;
#253 = LINE ( 'NONE', #203, #441 ) ;
#254 = CARTESIAN_POINT ( 'NONE',  ( 0.000000000000000000, 0.000000000000000000, 0.000000000000000000 ) ) ;
#255 = PRODUCT_CONTEXT ( 'NONE', #701, 'mechanical' ) ;
#256 = COLOUR_RGB ( '',0.7921568627450980005, 0.8196078431372548767, 0.9333333333333333481 ) ;
#257 = PRESENTATION_LAYER_ASSIGNMENT (  '', '', ( #244 ) ) ;
#258 = CARTESIAN_POINT ( 'NONE',  ( -38.56027998568551141, -14.51681128872865578, 0.000000000000000000 ) ) ;
#259 = CARTESIAN_POINT ( 'NONE',  ( -159.6469619541022098, 4.577601296479855364, 7.000000000000000000 ) ) ;
#260 = EDGE_CURVE ( 'NONE', #574, #674, #375, .T. ) ;
#261 = DIRECTION ( 'NONE',  ( 1.000000000000000000, 0.000000000000000000, 0.000000000000000000 ) ) ;
#262 = CARTESIAN_POINT ( 'NONE',  ( -28.64954408944988984, -108.7568090626628248, 3.000000000000000000 ) ) ;
#263 = VERTEX_POINT ( 'NONE', #503 ) ;
#264 = DIRECTION ( 'NONE',  ( 0.000000000000000000, 0.000000000000000000, 1.000000000000000000 ) ) ;
#265 = SURFACE_STYLE_USAGE ( .BOTH. , #318 ) ;
#266 = UNCERTAINTY_MEASURE_WITH_UNIT (LENGTH_MEASURE( 1.000000000000000082E-05 ), #398, 'distance_accuracy_value', 'NONE');
#267 = CIRCLE ( 'NONE', #476, 63.00000000000000000 ) ;
#268 = ADVANCED_FACE ( 'NONE', ( #507 ), #11, .F. ) ;
#269 = DIRECTION ( 'NONE',  ( 0.000000000000000000, 0.000000000000000000, 1.000000000000000000 ) ) ;
#270 = FACE_OUTER_BOUND ( 'NONE', #400, .T. ) ;
#271 = DIRECTION ( 'NONE',  ( -0.000000000000000000, -0.000000000000000000, -1.000000000000000000 ) ) ;
#272 = CARTESIAN_POINT ( 'NONE',  ( -94.64696195410220980, 4.577601296479855364, 7.000000000000000000 ) ) ;
#273 = ORIENTED_EDGE ( 'NONE', *, *, #260, .F. ) ;
#274 = SHAPE_REPRESENTATION ( 'Cerchio', ( #299 ), #335 ) ;
#275 = AXIS2_PLACEMENT_3D ( 'NONE', #352, #294, #465 ) ;
#276 = CIRCLE ( 'NONE', #383, 69.99999999999998579 ) ;
#277 = AXIS2_PLACEMENT_3D ( 'NONE', #213, #543, #312 ) ;
#278 = ORIENTED_EDGE ( 'NONE', *, *, #640, .F. ) ;
#279 = EDGE_CURVE ( 'NONE', #32, #8, #399, .T. ) ;
#280 = LINE ( 'NONE', #177, #224 ) ;
#281 = ORIENTED_EDGE ( 'NONE', *, *, #535, .T. ) ;
#282 = EDGE_LOOP ( 'NONE', ( #62, #482 ) ) ;
#283 = AXIS2_PLACEMENT_3D ( 'NONE', #716, #121, #65 ) ;
#284 = CARTESIAN_POINT ( 'NONE',  ( -157.6469619541022098, 4.577601296479855364, 7.000000000000000000 ) ) ;
#285 = PRODUCT_DEFINITION ( 'NON CONOSCIUTO', '', #611, #149 ) ;
#286 = VECTOR ( 'NONE', #469, 1000.000000000000000 ) ;
#287 = VERTEX_POINT ( 'NONE', #122 ) ;
#288 = DIRECTION ( 'NONE',  ( 1.000000000000000000, 0.000000000000000000, -0.000000000000000000 ) ) ;
#289 = ORIENTED_EDGE ( 'NONE', *, *, #237, .F. ) ;
#290 = DIRECTION ( 'NONE',  ( 0.000000000000000000, 0.000000000000000000, 1.000000000000000000 ) ) ;
#291 = CARTESIAN_POINT ( 'NONE',  ( -157.6469619541022098, 4.577601296479855364, 7.000000000000000000 ) ) ;
#292 = VERTEX_POINT ( 'NONE', #344 ) ;
#293 = EDGE_CURVE ( 'NONE', #557, #243, #132, .T. ) ;
#294 = DIRECTION ( 'NONE',  ( 0.000000000000000000, 0.000000000000000000, 1.000000000000000000 ) ) ;
#295 = DIRECTION ( 'NONE',  ( -0.000000000000000000, -0.000000000000000000, -1.000000000000000000 ) ) ;
#296 = CARTESIAN_POINT ( 'NONE',  ( 69.99999999999998579, 8.572527594031471415E-15, 3.000000000000000000 ) ) ;
#297 = MECHANICAL_DESIGN_GEOMETRIC_PRESENTATION_REPRESENTATION (  '', ( #576 ), #308 ) ;
#298 = ORIENTED_EDGE ( 'NONE', *, *, #512, .T. ) ;
#299 = AXIS2_PLACEMENT_3D ( 'NONE', #682, #456, #442 ) ;
#300 = DIRECTION ( 'NONE',  ( 0.000000000000000000, 0.000000000000000000, 1.000000000000000000 ) ) ;
#301 = CARTESIAN_POINT ( 'NONE',  ( -69.99999999999998579, 0.000000000000000000, 0.000000000000000000 ) ) ;
#302 = CARTESIAN_POINT ( 'NONE',  ( -94.64696195410220980, 4.577601296479855364, 7.000000000000000000 ) ) ;
#303 =( NAMED_UNIT ( * ) SI_UNIT ( $, .STERADIAN. ) SOLID_ANGLE_UNIT ( ) );
#304 = ORIENTED_EDGE ( 'NONE', *, *, #440, .F. ) ;
#305 = UNCERTAINTY_MEASURE_WITH_UNIT (LENGTH_MEASURE( 1.000000000000000082E-05 ), #491, 'distance_accuracy_value', 'NONE');
#306 = CARTESIAN_POINT ( 'NONE',  ( -30.14800097885917651, -14.51681128872865401, 3.000000000000000000 ) ) ;
#307 = EDGE_CURVE ( 'NONE', #204, #411, #685, .T. ) ;
#308 =( GEOMETRIC_REPRESENTATION_CONTEXT ( 3 ) GLOBAL_UNCERTAINTY_ASSIGNED_CONTEXT ( ( #389 ) ) GLOBAL_UNIT_ASSIGNED_CONTEXT ( ( #431, #544, #232 ) ) REPRESENTATION_CONTEXT ( 'NONE', 'WORKASPACE' ) );
#309 = AXIS2_PLACEMENT_3D ( 'NONE', #249, #402, #509 ) ;
#310 = CARTESIAN_POINT ( 'NONE',  ( -94.64696195410220980, 4.577601296479855364, 7.000000000000000000 ) ) ;
#311 = CARTESIAN_POINT ( 'NONE',  ( -29.64696195410221335, 4.577601296479863358, 0.000000000000000000 ) ) ;
#312 = DIRECTION ( 'NONE',  ( -1.000000000000000000, 0.000000000000000000, 0.000000000000000000 ) ) ;
#313 = SURFACE_STYLE_FILL_AREA ( #373 ) ;
#314 = APPLICATION_CONTEXT ( 'automotive_design' ) ;
#315 = EDGE_CURVE ( 'NONE', #475, #516, #276, .T. ) ;
#316 = SURFACE_STYLE_USAGE ( .BOTH. , #376 ) ;
#317 = FACE_OUTER_BOUND ( 'NONE', #51, .T. ) ;
#318 = SURFACE_SIDE_STYLE ('',( #313 ) ) ;
#319 = PRODUCT_CONTEXT ( 'NONE', #515, 'mechanical' ) ;
#320 = CIRCLE ( 'NONE', #485, 65.00000000000000000 ) ;
#321 = AXIS2_PLACEMENT_3D ( 'NONE', #621, #137, #473 ) ;
#322 = DIRECTION ( 'NONE',  ( -0.000000000000000000, -0.000000000000000000, -1.000000000000000000 ) ) ;
#323 = PLANE ( 'NONE',  #692 ) ;
#324 =( NAMED_UNIT ( * ) PLANE_ANGLE_UNIT ( ) SI_UNIT ( $, .RADIAN. ) );
#325 = CYLINDRICAL_SURFACE ( 'NONE', #505, 65.00000000000000000 ) ;
#326 = ORIENTED_EDGE ( 'NONE', *, *, #245, .T. ) ;
#327 = PRODUCT ( 'Cerchio', 'Cerchio', '', ( #255 ) ) ;
#328 =( REPRESENTATION_RELATIONSHIP ('NONE','NONE', #73, #33 ) REPRESENTATION_RELATIONSHIP_WITH_TRANSFORMATION ( #36 )SHAPE_REPRESENTATION_RELATIONSHIP( ) );
#329 =( NAMED_UNIT ( * ) SI_UNIT ( $, .STERADIAN. ) SOLID_ANGLE_UNIT ( ) );
#330 = CARTESIAN_POINT ( 'NONE',  ( -94.64696195410220980, 4.577601296479855364, 0.000000000000000000 ) ) ;
#331 = EDGE_CURVE ( 'NONE', #5, #582, #636, .T. ) ;
#332 = ORIENTED_EDGE ( 'NONE', *, *, #614, .F. ) ;
#333 = CIRCLE ( 'NONE', #562, 69.99999999999998579 ) ;
#334 = AXIS2_PLACEMENT_3D ( 'NONE', #310, #645, #153 ) ;
#335 =( GEOMETRIC_REPRESENTATION_CONTEXT ( 3 ) GLOBAL_UNCERTAINTY_ASSIGNED_CONTEXT ( ( #490 ) ) GLOBAL_UNIT_ASSIGNED_CONTEXT ( ( #492, #660, #529 ) ) REPRESENTATION_CONTEXT ( 'NONE', 'WORKASPACE' ) );
#336 = ORIENTED_EDGE ( 'NONE', *, *, #80, .T. ) ;
#337 = VECTOR ( 'NONE', #546, 1000.000000000000000 ) ;
#338 =( NAMED_UNIT ( * ) PLANE_ANGLE_UNIT ( ) SI_UNIT ( $, .RADIAN. ) );
#339 = ORIENTED_EDGE ( 'NONE', *, *, #640, .T. ) ;
#340 = ADVANCED_FACE ( 'NONE', ( #357, #144 ), #412, .T. ) ;
#341 = DIRECTION ( 'NONE',  ( 0.000000000000000000, 0.000000000000000000, 1.000000000000000000 ) ) ;
#342 = EDGE_LOOP ( 'NONE', ( #568, #117, #79, #71 ) ) ;
#343 = DIRECTION ( 'NONE',  ( 1.000000000000000000, 0.000000000000000000, 0.000000000000000000 ) ) ;
#344 = CARTESIAN_POINT ( 'NONE',  ( 69.99999999999998579, 8.572527594031471415E-15, 0.000000000000000000 ) ) ;
#345 = CIRCLE ( 'NONE', #29, 63.00000000000000000 ) ;
#346 = VECTOR ( 'NONE', #623, 1000.000000000000000 ) ;
#347 = ORIENTED_EDGE ( 'NONE', *, *, #653, .F. ) ;
#348 = CARTESIAN_POINT ( 'NONE',  ( 63.00000000000000000, 7.715274834628325378E-15, 3.000000000000000000 ) ) ;
#349 = LINE ( 'NONE', #570, #225 ) ;
#350 = DIRECTION ( 'NONE',  ( 1.000000000000000000, 0.000000000000000000, 0.000000000000000000 ) ) ;
#351 = ADVANCED_FACE ( 'NONE', ( #632 ), #360, .F. ) ;
#352 = CARTESIAN_POINT ( 'NONE',  ( 3.338582700144421267, -8.498210509451530115, 1000.000000000007503 ) ) ;
#353 = CARTESIAN_POINT ( 'NONE',  ( 0.000000000000000000, 0.000000000000000000, 3.000000000000000000 ) ) ;
#354 = FACE_OUTER_BOUND ( 'NONE', #548, .T. ) ;
#355 = ORIENTED_EDGE ( 'NONE', *, *, #419, .T. ) ;
#356 = APPLICATION_CONTEXT ( 'automotive_design' ) ;
#357 = FACE_OUTER_BOUND ( 'NONE', #672, .T. ) ;
#358 = CLOSED_SHELL ( 'NONE', ( #717, #169, #161, #60, #575, #90, #207, #351 ) ) ;
#359 = EDGE_LOOP ( 'NONE', ( #545, #192, #18, #339 ) ) ;
#360 = CYLINDRICAL_SURFACE ( 'NONE', #58, 1.500000000000001332 ) ;
#361 = LINE ( 'NONE', #410, #531 ) ;
#362 = ORIENTED_EDGE ( 'NONE', *, *, #50, .F. ) ;
#363 = ADVANCED_FACE ( 'NONE', ( #581 ), #520, .T. ) ;
#364 = CARTESIAN_POINT ( 'NONE',  ( -38.56027998568551141, -44.51681128872865401, 3.000000000000000000 ) ) ;
#365 = DIRECTION ( 'NONE',  ( 1.000000000000000000, 0.000000000000000000, 0.000000000000000000 ) ) ;
#366 = FILL_AREA_STYLE_COLOUR ( '', #608 ) ;
#367 = CYLINDRICAL_SURFACE ( 'NONE', #646, 63.00000000000000000 ) ;
#368 = DIRECTION ( 'NONE',  ( 0.000000000000000000, 0.000000000000000000, 1.000000000000000000 ) ) ;
#369 = AXIS2_PLACEMENT_3D ( 'NONE', #444, #668, #407 ) ;
#370 = AXIS2_PLACEMENT_3D ( 'NONE', #536, #208, #711 ) ;
#371 = SURFACE_STYLE_FILL_AREA ( #600 ) ;
#372 = DIRECTION ( 'NONE',  ( 0.000000000000000000, -1.000000000000000000, 0.000000000000000000 ) ) ;
#373 = FILL_AREA_STYLE ('',( #154 ) ) ;
#374 = ADVANCED_FACE ( 'NONE', ( #678 ), #583, .F. ) ;
#375 = LINE ( 'NONE', #284, #617 ) ;
#376 = SURFACE_SIDE_STYLE ('',( #371 ) ) ;
#377 = CARTESIAN_POINT ( 'NONE',  ( -38.56027998568551141, -4.516811288728654894, 3.000000000000000000 ) ) ;
#378 = CARTESIAN_POINT ( 'NONE',  ( -94.64696195410220980, 4.577601296479855364, 0.000000000000000000 ) ) ;
#379 = SHAPE_DEFINITION_REPRESENTATION ( #46, #274 ) ;
#380 = ORIENTED_EDGE ( 'NONE', *, *, #626, .F. ) ;
#381 = FACE_OUTER_BOUND ( 'NONE', #525, .T. ) ;
#382 = PRESENTATION_LAYER_ASSIGNMENT (  '', '', ( #662 ) ) ;
#383 = AXIS2_PLACEMENT_3D ( 'NONE', #141, #300, #190 ) ;
#384 =( LENGTH_UNIT ( ) NAMED_UNIT ( * ) SI_UNIT ( .MILLI., .METRE. ) );
#385 = DIRECTION ( 'NONE',  ( -1.000000000000000000, 0.000000000000000000, 0.000000000000000000 ) ) ;
#386 = ADVANCED_FACE ( 'NONE', ( #620 ), #13, .F. ) ;
#387 = PRESENTATION_STYLE_ASSIGNMENT (( #390 ) ) ;
#388 = EDGE_LOOP ( 'NONE', ( #278, #391 ) ) ;
#389 = UNCERTAINTY_MEASURE_WITH_UNIT (LENGTH_MEASURE( 1.000000000000000082E-05 ), #431, 'distance_accuracy_value', 'NONE');
#390 = SURFACE_STYLE_USAGE ( .BOTH. , #609 ) ;
#391 = ORIENTED_EDGE ( 'NONE', *, *, #512, .F. ) ;
#392 =( REPRESENTATION_RELATIONSHIP ('NONE','NONE', #73, #650 ) REPRESENTATION_RELATIONSHIP_WITH_TRANSFORMATION ( #657 )SHAPE_REPRESENTATION_RELATIONSHIP( ) );
#393 = AXIS2_PLACEMENT_3D ( 'NONE', #530, #478, #406 ) ;
#394 = AXIS2_PLACEMENT_3D ( 'NONE', #67, #629, #510 ) ;
#395 = DIRECTION ( 'NONE',  ( -0.000000000000000000, -0.000000000000000000, -1.000000000000000000 ) ) ;
#396 = VERTEX_POINT ( 'NONE', #468 ) ;
#397 = ORIENTED_EDGE ( 'NONE', *, *, #419, .F. ) ;
#398 =( LENGTH_UNIT ( ) NAMED_UNIT ( * ) SI_UNIT ( .MILLI., .METRE. ) );
#399 = LINE ( 'NONE', #615, #553 ) ;
#400 = EDGE_LOOP ( 'NONE', ( #455, #453, #702, #470 ) ) ;
#401 = PRODUCT ( 'Sostegno', 'Sostegno', '', ( #319 ) ) ;
#402 = DIRECTION ( 'NONE',  ( -0.000000000000000000, -0.000000000000000000, -1.000000000000000000 ) ) ;
#403 = MECHANICAL_DESIGN_GEOMETRIC_PRESENTATION_REPRESENTATION (  '', ( #662 ), #474 ) ;
#404 =( GEOMETRIC_REPRESENTATION_CONTEXT ( 3 ) GLOBAL_UNCERTAINTY_ASSIGNED_CONTEXT ( ( #305 ) ) GLOBAL_UNIT_ASSIGNED_CONTEXT ( ( #491, #477, #303 ) ) REPRESENTATION_CONTEXT ( 'NONE', 'WORKASPACE' ) );
#405 = CARTESIAN_POINT ( 'NONE',  ( 0.000000000000000000, 0.000000000000000000, 3.000000000000000000 ) ) ;
#406 = DIRECTION ( 'NONE',  ( 1.000000000000000000, 0.000000000000000000, 0.000000000000000000 ) ) ;
#407 = DIRECTION ( 'NONE',  ( 1.000000000000000000, 0.000000000000000000, 0.000000000000000000 ) ) ;
#408 = DIRECTION ( 'NONE',  ( -0.000000000000000000, -0.000000000000000000, -1.000000000000000000 ) ) ;
#409 = EDGE_CURVE ( 'NONE', #435, #248, #233, .T. ) ;
#410 = CARTESIAN_POINT ( 'NONE',  ( -29.64696195410221335, 4.577601296479863358, 7.000000000000000000 ) ) ;
#411 = VERTEX_POINT ( 'NONE', #364 ) ;
#412 = PLANE ( 'NONE',  #44 ) ;
#413 = DIRECTION ( 'NONE',  ( 0.000000000000000000, 0.000000000000000000, 1.000000000000000000 ) ) ;
#414 = DIRECTION ( 'NONE',  ( 0.000000000000000000, 0.000000000000000000, 1.000000000000000000 ) ) ;
#415 = DIRECTION ( 'NONE',  ( 1.000000000000000000, 0.000000000000000000, 0.000000000000000000 ) ) ;
#416 = CARTESIAN_POINT ( 'NONE',  ( 69.99999999999998579, 8.572527594031471415E-15, 3.000000000000000000 ) ) ;
#417 = ORIENTED_EDGE ( 'NONE', *, *, #409, .F. ) ;
#418 = AXIS2_PLACEMENT_3D ( 'NONE', #69, #198, #415 ) ;
#419 = EDGE_CURVE ( 'NONE', #674, #448, #267, .T. ) ;
#420 = DIRECTION ( 'NONE',  ( -1.000000000000000000, -8.751738993648823341E-17, 0.000000000000000000 ) ) ;
#421 = DIRECTION ( 'NONE',  ( 1.000000000000000000, 0.000000000000000000, 0.000000000000000000 ) ) ;
#422 = VERTEX_POINT ( 'NONE', #693 ) ;
#423 = APPLICATION_PROTOCOL_DEFINITION ( 'draft international standard', 'automotive_design', 1998, #701 ) ;
#424 = PLANE ( 'NONE',  #55 ) ;
#425 = PLANE ( 'NONE',  #53 ) ;
#426 = EDGE_CURVE ( 'NONE', #557, #204, #202, .T. ) ;
#427 = DIRECTION ( 'NONE',  ( 1.000000000000000000, 0.000000000000000000, 0.000000000000000000 ) ) ;
#428 = DIRECTION ( 'NONE',  ( -1.000000000000000000, 0.000000000000000000, 0.000000000000000000 ) ) ;
#429 = APPLICATION_CONTEXT ( 'automotive_design' ) ;
#430 = FACE_BOUND ( 'NONE', #282, .T. ) ;
#431 =( LENGTH_UNIT ( ) NAMED_UNIT ( * ) SI_UNIT ( .MILLI., .METRE. ) );
#432 = ORIENTED_EDGE ( 'NONE', *, *, #471, .F. ) ;
#433 = CARTESIAN_POINT ( 'NONE',  ( -28.64800097885917296, -14.51681128872865401, 3.000000000000000000 ) ) ;
#434 = LINE ( 'NONE', #651, #77 ) ;
#435 = VERTEX_POINT ( 'NONE', #348 ) ;
#436 = CARTESIAN_POINT ( 'NONE',  ( -94.64696195410220980, 4.577601296479855364, 7.000000000000000000 ) ) ;
#437 = CARTESIAN_POINT ( 'NONE',  ( -18.73880819321427538, -44.51681128872865401, 3.000000000000000000 ) ) ;
#438 = ORIENTED_EDGE ( 'NONE', *, *, #653, .T. ) ;
#439 = VECTOR ( 'NONE', #168, 1000.000000000000000 ) ;
#440 = EDGE_CURVE ( 'NONE', #422, #243, #454, .T. ) ;
#441 = VECTOR ( 'NONE', #134, 1000.000000000000000 ) ;
#442 = DIRECTION ( 'NONE',  ( 1.000000000000000000, 0.000000000000000000, 0.000000000000000000 ) ) ;
#443 = DIRECTION ( 'NONE',  ( -1.000000000000000000, 0.000000000000000000, 0.000000000000000000 ) ) ;
#444 = CARTESIAN_POINT ( 'NONE',  ( 0.000000000000000000, 0.000000000000000000, 0.000000000000000000 ) ) ;
#445 = CARTESIAN_POINT ( 'NONE',  ( 0.000000000000000000, 0.000000000000000000, 0.000000000000000000 ) ) ;
#446 = ORIENTED_EDGE ( 'NONE', *, *, #479, .T. ) ;
#447 = EDGE_CURVE ( 'NONE', #112, #287, #201, .T. ) ;
#448 = VERTEX_POINT ( 'NONE', #17 ) ;
#449 = CIRCLE ( 'NONE', #10, 63.00000000000000000 ) ;
#450 = DIRECTION ( 'NONE',  ( 0.000000000000000000, 0.000000000000000000, 1.000000000000000000 ) ) ;
#451 = ORIENTED_EDGE ( 'NONE', *, *, #542, .F. ) ;
#452 = DIRECTION ( 'NONE',  ( -0.000000000000000000, -0.000000000000000000, -1.000000000000000000 ) ) ;
#453 = ORIENTED_EDGE ( 'NONE', *, *, #293, .F. ) ;
#454 = LINE ( 'NONE', #127, #346 ) ;
#455 = ORIENTED_EDGE ( 'NONE', *, *, #440, .T. ) ;
#456 = DIRECTION ( 'NONE',  ( 0.000000000000000000, 0.000000000000000000, 1.000000000000000000 ) ) ;
#457 = ADVANCED_FACE ( 'NONE', ( #572 ), #466, .T. ) ;
#458 = AXIS2_PLACEMENT_3D ( 'NONE', #148, #368, #533 ) ;
#459 = MANIFOLD_SOLID_BREP ( 'Estrusione-Estrusione1', #461 ) ;
#460 = DIRECTION ( 'NONE',  ( -0.000000000000000000, -0.000000000000000000, -1.000000000000000000 ) ) ;
#461 = CLOSED_SHELL ( 'NONE', ( #374, #494, #340, #228, #457, #599 ) ) ;
#462 = AXIS2_PLACEMENT_3D ( 'NONE', #39, #264, #84 ) ;
#463 = DIRECTION ( 'NONE',  ( -0.000000000000000000, -0.000000000000000000, -1.000000000000000000 ) ) ;
#464 = ORIENTED_EDGE ( 'NONE', *, *, #293, .T. ) ;
#465 = DIRECTION ( 'NONE',  ( 1.000000000000000000, 0.000000000000000000, 0.000000000000000000 ) ) ;
#466 = CYLINDRICAL_SURFACE ( 'NONE', #564, 69.99999999999998579 ) ;
#467 = ORIENTED_EDGE ( 'NONE', *, *, #182, .F. ) ;
#468 = CARTESIAN_POINT ( 'NONE',  ( -18.73880819321428248, -44.51681128872865401, 3.000000000000000000 ) ) ;
#469 = DIRECTION ( 'NONE',  ( -0.000000000000000000, -0.000000000000000000, -1.000000000000000000 ) ) ;
#470 = ORIENTED_EDGE ( 'NONE', *, *, #542, .T. ) ;
#471 = EDGE_CURVE ( 'NONE', #516, #25, #688, .T. ) ;
#472 = CARTESIAN_POINT ( 'NONE',  ( -94.64696195410220980, 4.577601296479855364, 0.000000000000000000 ) ) ;
#473 = DIRECTION ( 'NONE',  ( 1.000000000000000000, 0.000000000000000000, 0.000000000000000000 ) ) ;
#474 =( GEOMETRIC_REPRESENTATION_CONTEXT ( 3 ) GLOBAL_UNCERTAINTY_ASSIGNED_CONTEXT ( ( #673 ) ) GLOBAL_UNIT_ASSIGNED_CONTEXT ( ( #603, #338, #605 ) ) REPRESENTATION_CONTEXT ( 'NONE', 'WORKASPACE' ) );
#475 = VERTEX_POINT ( 'NONE', #416 ) ;
#476 = AXIS2_PLACEMENT_3D ( 'NONE', #472, #238, #252 ) ;
#477 =( NAMED_UNIT ( * ) PLANE_ANGLE_UNIT ( ) SI_UNIT ( $, .RADIAN. ) );
#478 = DIRECTION ( 'NONE',  ( 0.000000000000000000, 0.000000000000000000, 1.000000000000000000 ) ) ;
#479 = EDGE_CURVE ( 'NONE', #475, #292, #241, .T. ) ;
#480 = LINE ( 'NONE', #258, #20 ) ;
#481 = DIRECTION ( 'NONE',  ( 1.000000000000000000, 0.000000000000000000, -0.000000000000000000 ) ) ;
#482 = ORIENTED_EDGE ( 'NONE', *, *, #38, .F. ) ;
#483 = PRODUCT_DEFINITION_CONTEXT ( 'detailed design', #356, 'design' ) ;
#484 = CARTESIAN_POINT ( 'NONE',  ( -31.64696195410221691, 4.577601296479863358, 7.000000000000000000 ) ) ;
#485 = AXIS2_PLACEMENT_3D ( 'NONE', #700, #209, #96 ) ;
#486 = DIRECTION ( 'NONE',  ( 0.000000000000000000, 0.000000000000000000, 1.000000000000000000 ) ) ;
#487 = LINE ( 'NONE', #49, #210 ) ;
#488 = APPLICATION_PROTOCOL_DEFINITION ( 'draft international standard', 'automotive_design', 1998, #91 ) ;
#489 = ORIENTED_EDGE ( 'NONE', *, *, #704, .T. ) ;
#490 = UNCERTAINTY_MEASURE_WITH_UNIT (LENGTH_MEASURE( 1.000000000000000082E-05 ), #492, 'distance_accuracy_value', 'NONE');
#491 =( LENGTH_UNIT ( ) NAMED_UNIT ( * ) SI_UNIT ( .MILLI., .METRE. ) );
#492 =( LENGTH_UNIT ( ) NAMED_UNIT ( * ) SI_UNIT ( .MILLI., .METRE. ) );
#493 = DIRECTION ( 'NONE',  ( 0.000000000000000000, 0.000000000000000000, 1.000000000000000000 ) ) ;
#494 = ADVANCED_FACE ( 'NONE', ( #573 ), #145, .T. ) ;
#495 = EDGE_LOOP ( 'NONE', ( #612, #2, #135, #489 ) ) ;
#496 = VECTOR ( 'NONE', #295, 1000.000000000000000 ) ;
#497 = CIRCLE ( 'NONE', #706, 65.00000000000000000 ) ;
#498 = DIRECTION ( 'NONE',  ( 1.000000000000000000, 0.000000000000000000, 0.000000000000000000 ) ) ;
#499 = ORIENTED_EDGE ( 'NONE', *, *, #128, .F. ) ;
#500 = EDGE_CURVE ( 'NONE', #230, #158, #361, .T. ) ;
#501 = CARTESIAN_POINT ( 'NONE',  ( -18.73880819321427538, -4.516811288728653118, 3.000000000000000000 ) ) ;
#502 = EDGE_LOOP ( 'NONE', ( #694, #347 ) ) ;
#503 = CARTESIAN_POINT ( 'NONE',  ( -38.56027998568551141, -4.516811288728654894, 0.000000000000000000 ) ) ;
#504 = ORIENTED_EDGE ( 'NONE', *, *, #684, .T. ) ;
#505 = AXIS2_PLACEMENT_3D ( 'NONE', #272, #156, #428 ) ;
#506 = VECTOR ( 'NONE', #463, 1000.000000000000000 ) ;
#507 = FACE_OUTER_BOUND ( 'NONE', #138, .T. ) ;
#508 = ORIENTED_EDGE ( 'NONE', *, *, #675, .T. ) ;
#509 = DIRECTION ( 'NONE',  ( -1.000000000000000000, 0.000000000000000000, 0.000000000000000000 ) ) ;
#510 = DIRECTION ( 'NONE',  ( 1.000000000000000000, 0.000000000000000000, 0.000000000000000000 ) ) ;
#511 = EDGE_LOOP ( 'NONE', ( #236, #417 ) ) ;
#512 = EDGE_CURVE ( 'NONE', #158, #582, #497, .T. ) ;
#513 = CARTESIAN_POINT ( 'NONE',  ( 0.000000000000000000, 0.000000000000000000, 0.000000000000000000 ) ) ;
#514 = DIRECTION ( 'NONE',  ( 1.000000000000000000, 0.000000000000000000, 0.000000000000000000 ) ) ;
#515 = APPLICATION_CONTEXT ( 'automotive_design' ) ;
#516 = VERTEX_POINT ( 'NONE', #527 ) ;
#517 = PRODUCT_RELATED_PRODUCT_CATEGORY ( 'part', '', ( #173 ) ) ;
#518 = SHAPE_REPRESENTATION_RELATIONSHIP ( 'NONE' , 'NONE' ,  #33, #697 ) ;
#519 = COLOUR_RGB ( '',0.7921568627450980005, 0.8196078431372548767, 0.9333333333333333481 ) ;
#520 = CYLINDRICAL_SURFACE ( 'NONE', #578, 65.00000000000000000 ) ;
#521 = VECTOR ( 'NONE', #271, 1000.000000000000000 ) ;
#522 = ORIENTED_EDGE ( 'NONE', *, *, #614, .T. ) ;
#523 = EDGE_CURVE ( 'NONE', #248, #435, #449, .T. ) ;
#524 = CARTESIAN_POINT ( 'NONE',  ( -18.73880819321427538, -4.516811288728653118, 3.000000000000000000 ) ) ;
#525 = EDGE_LOOP ( 'NONE', ( #54, #76, #304, #499 ) ) ;
#526 = CARTESIAN_POINT ( 'NONE',  ( -38.56027998568551141, -4.516811288728654894, 3.000000000000000000 ) ) ;
#527 = CARTESIAN_POINT ( 'NONE',  ( -69.99999999999998579, 0.000000000000000000, 3.000000000000000000 ) ) ;
#528 = ORIENTED_EDGE ( 'NONE', *, *, #315, .T. ) ;
#529 =( NAMED_UNIT ( * ) SI_UNIT ( $, .STERADIAN. ) SOLID_ANGLE_UNIT ( ) );
#530 = CARTESIAN_POINT ( 'NONE',  ( -94.64696195410220980, 4.577601296479855364, 7.000000000000000000 ) ) ;
#531 = VECTOR ( 'NONE', #75, 1000.000000000000000 ) ;
#532 = CARTESIAN_POINT ( 'NONE',  ( -159.6469619541022098, 4.577601296479855364, 0.000000000000000000 ) ) ;
#533 = DIRECTION ( 'NONE',  ( 1.000000000000000000, 0.000000000000000000, -0.000000000000000000 ) ) ;
#534 = APPLICATION_PROTOCOL_DEFINITION ( 'draft international standard', 'automotive_design', 1998, #429 ) ;
#535 = EDGE_CURVE ( 'NONE', #5, #230, #633, .T. ) ;
#536 = CARTESIAN_POINT ( 'NONE',  ( -28.64800097885917296, -14.51681128872865401, 3.000000000000000000 ) ) ;
#537 = PRESENTATION_STYLE_ASSIGNMENT (( #265 ) ) ;
#538 = DIRECTION ( 'NONE',  ( -0.000000000000000000, -0.000000000000000000, -1.000000000000000000 ) ) ;
#539 = DIRECTION ( 'NONE',  ( -0.000000000000000000, 0.000000000000000000, -1.000000000000000000 ) ) ;
#540 = CONTEXT_DEPENDENT_SHAPE_REPRESENTATION ( #133, #580 ) ;
#541 = AXIS2_PLACEMENT_3D ( 'NONE', #262, #159, #481 ) ;
#542 = EDGE_CURVE ( 'NONE', #396, #422, #253, .T. ) ;
#543 = DIRECTION ( 'NONE',  ( -0.000000000000000000, -0.000000000000000000, -1.000000000000000000 ) ) ;
#544 =( NAMED_UNIT ( * ) PLANE_ANGLE_UNIT ( ) SI_UNIT ( $, .RADIAN. ) );
#545 = ORIENTED_EDGE ( 'NONE', *, *, #500, .F. ) ;
#546 = DIRECTION ( 'NONE',  ( 0.000000000000000000, 1.000000000000000000, 0.000000000000000000 ) ) ;
#547 = PRODUCT_DEFINITION ( 'NON CONOSCIUTO', '', #178, #483 ) ;
#548 = EDGE_LOOP ( 'NONE', ( #222, #451, #467, #105 ) ) ;
#549 =( NAMED_UNIT ( * ) PLANE_ANGLE_UNIT ( ) SI_UNIT ( $, .RADIAN. ) );
#550 = DIRECTION ( 'NONE',  ( 8.751738993648823341E-17, -1.000000000000000000, 0.000000000000000000 ) ) ;
#551 = PRODUCT_DEFINITION_SHAPE ( 'NONE', 'NONE',  #547 ) ;
#552 = VERTEX_POINT ( 'NONE', #679 ) ;
#553 = VECTOR ( 'NONE', #665, 1000.000000000000000 ) ;
#554 = EDGE_CURVE ( 'NONE', #516, #475, #125, .T. ) ;
#555 = CIRCLE ( 'NONE', #334, 63.00000000000000000 ) ;
#556 = FACE_OUTER_BOUND ( 'NONE', #710, .T. ) ;
#557 = VERTEX_POINT ( 'NONE', #129 ) ;
#558 = PRODUCT_RELATED_PRODUCT_CATEGORY ( 'part', '', ( #327 ) ) ;
#559 = ORIENTED_EDGE ( 'NONE', *, *, #50, .T. ) ;
#560 = CARTESIAN_POINT ( 'NONE',  ( -63.00000000000000000, 0.000000000000000000, 3.000000000000000000 ) ) ;
#561 = ORIENTED_EDGE ( 'NONE', *, *, #237, .T. ) ;
#562 = AXIS2_PLACEMENT_3D ( 'NONE', #254, #585, #85 ) ;
#563 = DIRECTION ( 'NONE',  ( 0.000000000000000000, 0.000000000000000000, 1.000000000000000000 ) ) ;
#564 = AXIS2_PLACEMENT_3D ( 'NONE', #240, #74, #193 ) ;
#565 = DIRECTION ( 'NONE',  ( 1.000000000000000000, 8.751738993648823341E-17, 0.000000000000000000 ) ) ;
#566 = EDGE_CURVE ( 'NONE', #411, #552, #349, .T. ) ;
#567 = CARTESIAN_POINT ( 'NONE',  ( 0.000000000000000000, 0.000000000000000000, 3.000000000000000000 ) ) ;
#568 = ORIENTED_EDGE ( 'NONE', *, *, #479, .F. ) ;
#569 = CARTESIAN_POINT ( 'NONE',  ( 0.000000000000000000, 0.000000000000000000, 0.000000000000000000 ) ) ;
#570 = CARTESIAN_POINT ( 'NONE',  ( -38.56027998568551141, -44.51681128872865401, 3.000000000000000000 ) ) ;
#571 = ORIENTED_EDGE ( 'NONE', *, *, #307, .T. ) ;
#572 = FACE_OUTER_BOUND ( 'NONE', #342, .T. ) ;
#573 = FACE_OUTER_BOUND ( 'NONE', #142, .T. ) ;
#574 = VERTEX_POINT ( 'NONE', #291 ) ;
#575 = ADVANCED_FACE ( 'NONE', ( #354 ), #95, .F. ) ;
#576 = STYLED_ITEM ( 'NONE', ( #537 ), #194 ) ;
#577 = DIRECTION ( 'NONE',  ( 0.000000000000000000, 0.000000000000000000, 1.000000000000000000 ) ) ;
#578 = AXIS2_PLACEMENT_3D ( 'NONE', #78, #136, #183 ) ;
#579 = ORIENTED_EDGE ( 'NONE', *, *, #426, .T. ) ;
#580 = PRODUCT_DEFINITION_SHAPE ( 'NONE', 'NONE',  #718 ) ;
#581 = FACE_OUTER_BOUND ( 'NONE', #670, .T. ) ;
#582 = VERTEX_POINT ( 'NONE', #532 ) ;
#583 = CYLINDRICAL_SURFACE ( 'NONE', #309, 63.00000000000000000 ) ;
#584 = CARTESIAN_POINT ( 'NONE',  ( -94.64696195410220980, 4.577601296479855364, 0.000000000000000000 ) ) ;
#585 = DIRECTION ( 'NONE',  ( 0.000000000000000000, 0.000000000000000000, 1.000000000000000000 ) ) ;
#586 = SHAPE_DEFINITION_REPRESENTATION ( #83, #33 ) ;
#587 = DIRECTION ( 'NONE',  ( 0.000000000000000000, 0.000000000000000000, 1.000000000000000000 ) ) ;
#588 = VECTOR ( 'NONE', #81, 1000.000000000000000 ) ;
#589 = DIRECTION ( 'NONE',  ( 1.000000000000000000, 0.000000000000000000, -0.000000000000000000 ) ) ;
#590 = EDGE_CURVE ( 'NONE', #598, #8, #152, .T. ) ;
#591 = ITEM_DEFINED_TRANSFORMATION ( 'NONE', 'NONE', #188,  #299 ) ;
#592 = AXIS2_PLACEMENT_3D ( 'NONE', #34, #594, #427 ) ;
#593 = PRODUCT_DEFINITION_FORMATION_WITH_SPECIFIED_SOURCE ( 'TUTTO', '', #327, .NOT_KNOWN. ) ;
#594 = DIRECTION ( 'NONE',  ( 0.000000000000000000, 0.000000000000000000, 1.000000000000000000 ) ) ;
#595 = CARTESIAN_POINT ( 'NONE',  ( -38.56027998568551141, -14.51681128872865578, 3.000000000000000000 ) ) ;
#596 = CYLINDRICAL_SURFACE ( 'NONE', #212, 1.500000000000001332 ) ;
#597 = FACE_BOUND ( 'NONE', #231, .T. ) ;
#598 = VERTEX_POINT ( 'NONE', #99 ) ;
#599 = ADVANCED_FACE ( 'NONE', ( #317 ), #367, .F. ) ;
#600 = FILL_AREA_STYLE ('',( #366 ) ) ;
#601 = CIRCLE ( 'NONE', #607, 65.00000000000000000 ) ;
#602 = DIRECTION ( 'NONE',  ( 0.000000000000000000, 0.000000000000000000, 1.000000000000000000 ) ) ;
#603 =( LENGTH_UNIT ( ) NAMED_UNIT ( * ) SI_UNIT ( .MILLI., .METRE. ) );
#604 = EDGE_LOOP ( 'NONE', ( #680, #438, #12, #181 ) ) ;
#605 =( NAMED_UNIT ( * ) SI_UNIT ( $, .STERADIAN. ) SOLID_ANGLE_UNIT ( ) );
#606 = ORIENTED_EDGE ( 'NONE', *, *, #196, .T. ) ;
#607 = AXIS2_PLACEMENT_3D ( 'NONE', #221, #661, #104 ) ;
#608 = COLOUR_RGB ( '',0.7921568627450980005, 0.8196078431372548767, 0.9333333333333333481 ) ;
#609 = SURFACE_SIDE_STYLE ('',( #167 ) ) ;
#610 = EDGE_LOOP ( 'NONE', ( #176, #326, #205, #289 ) ) ;
#611 = PRODUCT_DEFINITION_FORMATION_WITH_SPECIFIED_SOURCE ( 'TUTTO', '', #173, .NOT_KNOWN. ) ;
#612 = ORIENTED_EDGE ( 'NONE', *, *, #696, .T. ) ;
#613 = DIRECTION ( 'NONE',  ( 0.000000000000000000, 0.000000000000000000, 1.000000000000000000 ) ) ;
#614 = EDGE_CURVE ( 'NONE', #230, #5, #86, .T. ) ;
#615 = CARTESIAN_POINT ( 'NONE',  ( -30.14800097885917651, -14.51681128872865401, 3.000000000000000000 ) ) ;
#616 = ORIENTED_EDGE ( 'NONE', *, *, #114, .T. ) ;
#617 = VECTOR ( 'NONE', #61, 1000.000000000000000 ) ;
#618 =( LENGTH_UNIT ( ) NAMED_UNIT ( * ) SI_UNIT ( .MILLI., .METRE. ) );
#619 = AXIS2_PLACEMENT_3D ( 'NONE', #584, #486, #261 ) ;
#620 = FACE_OUTER_BOUND ( 'NONE', #654, .T. ) ;
#621 = CARTESIAN_POINT ( 'NONE',  ( -94.64696195410220980, 4.577601296479855364, 7.000000000000000000 ) ) ;
#622 = CARTESIAN_POINT ( 'NONE',  ( -28.64800097885917296, -14.51681128872865401, 0.000000000000000000 ) ) ;
#623 = DIRECTION ( 'NONE',  ( 0.000000000000000000, 1.000000000000000000, 0.000000000000000000 ) ) ;
#624 = DIRECTION ( 'NONE',  ( 0.000000000000000000, 0.000000000000000000, 1.000000000000000000 ) ) ;
#625 = ORIENTED_EDGE ( 'NONE', *, *, #331, .F. ) ;
#626 = EDGE_CURVE ( 'NONE', #689, #448, #31, .T. ) ;
#627 = DIRECTION ( 'NONE',  ( -1.000000000000000000, 0.000000000000000000, 0.000000000000000000 ) ) ;
#628 = CARTESIAN_POINT ( 'NONE',  ( -69.99999999999998579, 0.000000000000000000, 3.000000000000000000 ) ) ;
#629 = DIRECTION ( 'NONE',  ( 0.000000000000000000, 0.000000000000000000, 1.000000000000000000 ) ) ;
#630 = ORIENTED_EDGE ( 'NONE', *, *, #102, .T. ) ;
#631 = SHAPE_DEFINITION_REPRESENTATION ( #666, #73 ) ;
#632 = FACE_OUTER_BOUND ( 'NONE', #604, .T. ) ;
#633 = CIRCLE ( 'NONE', #321, 65.00000000000000000 ) ;
#634 = DIRECTION ( 'NONE',  ( -1.000000000000000000, 0.000000000000000000, 0.000000000000000000 ) ) ;
#635 = EDGE_LOOP ( 'NONE', ( #571, #68, #336, #579 ) ) ;
#636 = LINE ( 'NONE', #690, #140 ) ;
#637 = CARTESIAN_POINT ( 'NONE',  ( -30.14800097885917651, -14.51681128872865401, 0.000000000000000000 ) ) ;
#638 = ITEM_DEFINED_TRANSFORMATION ( 'NONE', 'NONE', #283,  #299 ) ;
#639 = APPLICATION_PROTOCOL_DEFINITION ( 'draft international standard', 'automotive_design', 1998, #314 ) ;
#640 = EDGE_CURVE ( 'NONE', #582, #158, #175, .T. ) ;
#641 = CARTESIAN_POINT ( 'NONE',  ( -28.64800097885917296, -14.51681128872865401, 0.000000000000000000 ) ) ;
#642 = DIRECTION ( 'NONE',  ( -0.000000000000000000, -0.000000000000000000, -1.000000000000000000 ) ) ;
#643 = CONTEXT_DEPENDENT_SHAPE_REPRESENTATION ( #170, #160 ) ;
#644 = CIRCLE ( 'NONE', #393, 63.00000000000000000 ) ;
#645 = DIRECTION ( 'NONE',  ( 0.000000000000000000, 0.000000000000000000, 1.000000000000000000 ) ) ;
#646 = AXIS2_PLACEMENT_3D ( 'NONE', #705, #538, #92 ) ;
#647 = FACE_OUTER_BOUND ( 'NONE', #388, .T. ) ;
#648 = PRODUCT_DEFINITION_CONTEXT ( 'detailed design', #429, 'design' ) ;
#649 = CARTESIAN_POINT ( 'NONE',  ( -31.64696195410221691, 4.577601296479863358, 7.000000000000000000 ) ) ;
#650 = SHAPE_REPRESENTATION ( 'SostegnoCerchio', ( #299 ), #681 ) ;
#651 = CARTESIAN_POINT ( 'NONE',  ( -27.14800097885917296, -14.51681128872865401, 3.000000000000000000 ) ) ;
#652 = SHAPE_DEFINITION_REPRESENTATION ( #551, #650 ) ;
#653 = EDGE_CURVE ( 'NONE', #239, #32, #187, .T. ) ;
#654 = EDGE_LOOP ( 'NONE', ( #504, #179, #397, #273 ) ) ;
#655 = DIRECTION ( 'NONE',  ( -1.000000000000000000, 0.000000000000000000, 0.000000000000000000 ) ) ;
#656 = FACE_BOUND ( 'NONE', #502, .T. ) ;
#657 = ITEM_DEFINED_TRANSFORMATION ( 'NONE', 'NONE', #275,  #299 ) ;
#658 = ORIENTED_EDGE ( 'NONE', *, *, #409, .T. ) ;
#659 = PRODUCT_RELATED_PRODUCT_CATEGORY ( 'part', '', ( #401 ) ) ;
#660 =( NAMED_UNIT ( * ) PLANE_ANGLE_UNIT ( ) SI_UNIT ( $, .RADIAN. ) );
#661 = DIRECTION ( 'NONE',  ( -0.000000000000000000, -0.000000000000000000, -1.000000000000000000 ) ) ;
#662 = STYLED_ITEM ( 'NONE', ( #387 ), #218 ) ;
#663 = MECHANICAL_DESIGN_GEOMETRIC_PRESENTATION_REPRESENTATION (  '', ( #244 ), #404 ) ;
#664 = DIRECTION ( 'NONE',  ( 0.000000000000000000, 0.000000000000000000, 1.000000000000000000 ) ) ;
#665 = DIRECTION ( 'NONE',  ( -0.000000000000000000, -0.000000000000000000, -1.000000000000000000 ) ) ;
#666 = PRODUCT_DEFINITION_SHAPE ( 'NONE', 'NONE',  #285 ) ;
#667 = ADVANCED_FACE ( 'NONE', ( #215, #430 ), #424, .T. ) ;
#668 = DIRECTION ( 'NONE',  ( 0.000000000000000000, 0.000000000000000000, 1.000000000000000000 ) ) ;
#669 = CARTESIAN_POINT ( 'NONE',  ( -29.64696195410221335, 4.577601296479863358, 7.000000000000000000 ) ) ;
#670 = EDGE_LOOP ( 'NONE', ( #332, #686, #298, #625 ) ) ;
#671 = DIRECTION ( 'NONE',  ( 1.000000000000000000, 0.000000000000000000, 0.000000000000000000 ) ) ;
#672 = EDGE_LOOP ( 'NONE', ( #59, #528 ) ) ;
#673 = UNCERTAINTY_MEASURE_WITH_UNIT (LENGTH_MEASURE( 1.000000000000000082E-05 ), #603, 'distance_accuracy_value', 'NONE');
#674 = VERTEX_POINT ( 'NONE', #88 ) ;
#675 = EDGE_CURVE ( 'NONE', #287, #112, #211, .T. ) ;
#676 = ORIENTED_EDGE ( 'NONE', *, *, #219, .T. ) ;
#677 =( NAMED_UNIT ( * ) SI_UNIT ( $, .STERADIAN. ) SOLID_ANGLE_UNIT ( ) );
#678 = FACE_OUTER_BOUND ( 'NONE', #610, .T. ) ;
#679 = CARTESIAN_POINT ( 'NONE',  ( -38.56027998568551141, -44.51681128872865401, 0.000000000000000000 ) ) ;
#680 = ORIENTED_EDGE ( 'NONE', *, *, #114, .F. ) ;
#681 =( GEOMETRIC_REPRESENTATION_CONTEXT ( 3 ) GLOBAL_UNCERTAINTY_ASSIGNED_CONTEXT ( ( #3 ) ) GLOBAL_UNIT_ASSIGNED_CONTEXT ( ( #618, #126, #677 ) ) REPRESENTATION_CONTEXT ( 'NONE', 'WORKASPACE' ) );
#682 = CARTESIAN_POINT ( 'NONE',  ( 0.000000000000000000, 0.000000000000000000, 0.000000000000000000 ) ) ;
#683 = AXIS2_PLACEMENT_3D ( 'NONE', #641, #269, #147 ) ;
#684 = EDGE_CURVE ( 'NONE', #574, #689, #555, .T. ) ;
#685 = LINE ( 'NONE', #526, #588 ) ;
#686 = ORIENTED_EDGE ( 'NONE', *, *, #500, .T. ) ;
#687 = PRODUCT_DEFINITION_SHAPE ( 'NONE', 'NONE',  #721 ) ;
#688 = LINE ( 'NONE', #628, #286 ) ;
#689 = VERTEX_POINT ( 'NONE', #649 ) ;
#690 = CARTESIAN_POINT ( 'NONE',  ( -159.6469619541022098, 4.577601296479855364, 7.000000000000000000 ) ) ;
#691 = ORIENTED_EDGE ( 'NONE', *, *, #315, .F. ) ;
#692 = AXIS2_PLACEMENT_3D ( 'NONE', #595, #164, #539 ) ;
#693 = CARTESIAN_POINT ( 'NONE',  ( -18.73880819321428248, -44.51681128872865401, 0.000000000000000000 ) ) ;
#694 = ORIENTED_EDGE ( 'NONE', *, *, #196, .F. ) ;
#695 = CONTEXT_DEPENDENT_SHAPE_REPRESENTATION ( #328, #247 ) ;
#696 = EDGE_CURVE ( 'NONE', #263, #552, #480, .T. ) ;
#697 = ADVANCED_BREP_SHAPE_REPRESENTATION ( '', ( #218, #299 ), #113 ) ;
#698 = PLANE ( 'NONE',  #458 ) ;
#699 = DIRECTION ( 'NONE',  ( 1.000000000000000000, 0.000000000000000000, -0.000000000000000000 ) ) ;
#700 = CARTESIAN_POINT ( 'NONE',  ( -28.64954408944988984, -108.7568090626628248, 3.000000000000000000 ) ) ;
#701 = APPLICATION_CONTEXT ( 'automotive_design' ) ;
#702 = ORIENTED_EDGE ( 'NONE', *, *, #80, .F. ) ;
#703 = AXIS2_PLACEMENT_3D ( 'NONE', #214, #450, #52 ) ;
#704 = EDGE_CURVE ( 'NONE', #204, #263, #155, .T. ) ;
#705 = CARTESIAN_POINT ( 'NONE',  ( 0.000000000000000000, 0.000000000000000000, 3.000000000000000000 ) ) ;
#706 = AXIS2_PLACEMENT_3D ( 'NONE', #22, #413, #14 ) ;
#707 = FACE_BOUND ( 'NONE', #171, .T. ) ;
#708 = APPLICATION_PROTOCOL_DEFINITION ( 'draft international standard', 'automotive_design', 1998, #515 ) ;
#709 = ADVANCED_BREP_SHAPE_REPRESENTATION ( '', ( #194, #299 ), #335 ) ;
#710 = EDGE_LOOP ( 'NONE', ( #251, #185 ) ) ;
#711 = DIRECTION ( 'NONE',  ( 1.000000000000000000, 0.000000000000000000, 0.000000000000000000 ) ) ;
#712 = FACE_OUTER_BOUND ( 'NONE', #495, .T. ) ;
#713 = PRODUCT_CONTEXT ( 'NONE', #56, 'mechanical' ) ;
#714 = CARTESIAN_POINT ( 'NONE',  ( -18.73880819321427538, -44.51681128872865401, 3.000000000000000000 ) ) ;
#715 = ORIENTED_EDGE ( 'NONE', *, *, #245, .F. ) ;
#716 = CARTESIAN_POINT ( 'NONE',  ( -105.4182263625185101, 20.15133357999798136, 1000.000000000007503 ) ) ;
#717 = ADVANCED_FACE ( 'NONE', ( #47 ), #596, .F. ) ;
#718 = NEXT_ASSEMBLY_USAGE_OCCURRENCE ( 'NAUO1', ' ', ' ', #285, #94, $ ) ;
#719 = NEXT_ASSEMBLY_USAGE_OCCURRENCE ( 'NAUO2', ' ', ' ', #285, #250, $ ) ;
#720 = NEXT_ASSEMBLY_USAGE_OCCURRENCE ( 'NAUO3', ' ', ' ', #285, #250, $ ) ;
#721 = NEXT_ASSEMBLY_USAGE_OCCURRENCE ( 'NAUO4', ' ', ' ', #285, #547, $ ) ;
ENDSEC;
END-ISO-10303-21;
